<svg width="52" height="52" fill="none" xmlns="http://www.w3.org/2000/svg"><path d="M36.563 13.813 26 20.313l-10.563-6.5V2.437h21.126v11.376Z" fill="#212529"/><path d="M32.5 2.438v13.877L26 20.312l-6.5-3.997V2.437h13Z" fill="#DD051D"/><path d="m26 20.313 5.273-3.25a17.356 17.356 0 0 0-10.562 0L26 20.313Z" fill="#A60416"/><path d="M26 49.563c8.75 0 15.844-7.094 15.844-15.844S34.75 17.875 26 17.875s-15.844 7.093-15.844 15.844c0 8.75 7.094 15.843 15.844 15.843Z" fill="#FCCD1D"/><path d="M26 45.5c6.507 0 11.781-5.275 11.781-11.781 0-6.507-5.274-11.782-11.781-11.782-6.507 0-11.781 5.275-11.781 11.782C14.219 40.225 19.493 45.5 26 45.5Z" fill="#F9A215"/><path d="m27.113 27.625 1.235 2.137a1.252 1.252 0 0 0 .861.617l2.479.496a1.243 1.243 0 0 1 .69 2.08l-1.706 1.804a1.219 1.219 0 0 0-.325.991l.292 2.438a1.276 1.276 0 0 1-1.803 1.283l-2.284-1.032a1.3 1.3 0 0 0-1.072 0l-2.283 1.032a1.275 1.275 0 0 1-1.82-1.283l.292-2.438a1.22 1.22 0 0 0-.325-.991l-1.706-1.804a1.243 1.243 0 0 1 .674-2.08l2.438-.48a1.25 1.25 0 0 0 .861-.617l1.276-2.153a1.293 1.293 0 0 1 2.226 0Z" fill="#FCCD1D"/></svg>