<svg width="177" height="31" fill="none" xmlns="http://www.w3.org/2000/svg"><path d="m18.887.645-2.032 2.304 3.204 8.516.78-.43-2.89-7.695L20.02.957l.508.215-1.972 2.285 2.734 7.285a4.03 4.03 0 0 0 .273-.215l.645-.547c.39-.312.638-.533.742-.664.339 1.485.86 2.813 1.563 3.985-.378-.026-.651-.04-.82-.04-1.238 0-2.143.196-2.715.587l3.535 9.59 2.93 2.265h-9.864l2.695-2.265-2.168-5.704c-1.432 1.446-2.532 2.82-3.3 4.121l-.45-.117c.769-1.276 1.915-2.701 3.438-4.277l.156-.195-.37-.86a17.364 17.364 0 0 0-3.849 4.492l-.351-.566c-.677-1.08-1.543-2.311-2.598-3.691l-.195-.235c-1.003 2.227-1.504 4.037-1.504 5.43 0 .82.137 1.517.41 2.09.287.56.964 1.504 2.031 2.832l.43.547H1.406l-.39-.528h9.941l-.332-.41c-.86-1.041-1.426-1.849-1.7-2.422-.26-.586-.39-1.27-.39-2.05 0-1.329.54-3.308 1.621-5.938l-.86-.898a29.343 29.343 0 0 0-.644 1.836l-.644 1.992c-.352 1.067-.528 1.953-.528 2.656 0 .73.124 1.335.372 1.816.247.482.768 1.14 1.562 1.973.078.078.195.202.352.371H0c1.862-.963 3.333-2.259 4.414-3.887 1.094-1.627 2.175-4.14 3.242-7.539l.078-.273c-.69-.586-1.686-.944-2.988-1.074a14.024 14.024 0 0 0 1.66-3.34c.183.17.293.273.332.312l.88.82c.299.287.657.58 1.073.88l.352-.86-.234-.195A43.985 43.985 0 0 0 7.168 9.16l-.176-.137.313-.43c.69.456 1.354.984 1.992 1.583l2.656-7.305L9.883.645h9.004Zm-4.825 6.27-2.148 5.663c.117.13.182.209.195.235l.801.898c.43.469.977 1.198 1.64 2.187l.196.293c.56-.703 1.224-1.4 1.992-2.09l-2.675-7.187Zm-.878-2.267-3.106 8.204a27.144 27.144 0 0 1 2.559 3.007l.898 1.25c.013.013.078.098.195.254.118-.117.183-.189.196-.215l.273-.332c.04-.052.11-.136.215-.253a20.35 20.35 0 0 0-3.184-3.81l2.5-6.6-.546-1.505Zm11.484 5.606c.286 1.172 1.003 2.78 2.148 4.824a7.454 7.454 0 0 0-.488-.058l-1.582-.137a19.406 19.406 0 0 0-1.562-.098c-.053 0-.183.007-.391.02l3.262 8.652 4.355 3.848H19.102l-.372-.528h10.372l-3.516-3.105-3.477-9.2c.443-.117.95-.175 1.524-.175.703 0 1.484.058 2.344.176l-.235-.43c-.833-1.536-1.393-2.923-1.68-4.16l.606.37Zm7.324-7.266C35.078 1.204 38.398.313 41.953.313c2.76 0 5.033.598 6.816 1.796 1.797 1.198 2.696 2.722 2.696 4.57 0 1.511-.586 2.852-1.758 4.024-1.172 1.159-2.773 1.999-4.805 2.52.899 2.474 2.116 4.882 3.653 7.226 1.55 2.344 3.099 4.14 4.648 5.39l-.293.099c-1.94.664-3.841 1.601-5.703 2.812l-.293.195-.098-.625c-.833-5.039-1.998-9.31-3.496-12.812l-.078-.195c-.898.416-2.103.748-3.613.996l-.156.02v7.304l3.437 3.672H32.813l-.313-.528h9.297l-2.832-3.008V15.9l.41-.06c1.484-.155 2.728-.448 3.73-.878a3.31 3.31 0 0 1-.136-.293l-.196-.566a3.304 3.304 0 0 0-.097-.235c-.808.235-2.33.488-4.57.762l-.215.039v8.71l2.226 2.325h-8.633l2.54-2.324v-6.563l-.157.02c-.755.17-1.439.358-2.05.566l-.157.059-.176-.39c.573-.222 1.023-.372 1.348-.45l1.035-.254.156-.039v-1.015c-.768 0-1.725.169-2.87.507l-.215.078c.026-.182.156-.605.39-1.27.026-.051.117-.344.274-.878l.058-.176c.586.04 1.042.059 1.367.059.352 0 .677-.02.977-.059v-9.61a11.696 11.696 0 0 0-1.856-.917l-.156-.059Zm5.899-.508v10.528c.377 0 .735-.033 1.074-.098V3.3c.716-.195 1.575-.292 2.578-.292 2.539 0 4.264.833 5.176 2.5-.964-.781-1.81-1.315-2.54-1.602-.729-.3-1.6-.449-2.617-.449-.794 0-1.49.078-2.09.234v9.22l.215-.04c2.566-.469 4.467-1.204 5.704-2.207 1.25-1.016 1.875-2.33 1.875-3.945 0-1.446-.56-2.637-1.68-3.574-1.12-.951-2.533-1.426-4.238-1.426-1.367 0-2.52.254-3.457.761Zm9.433 11.72c.82 2.681 2.272 5.305 4.356 7.87 1.302 1.602 2.949 3.04 4.941 4.317a30.854 30.854 0 0 0-8.398 3.633l-.176.117-.39-.313a27.83 27.83 0 0 1 7.949-3.594c-3.75-2.5-6.7-6.497-8.848-11.992l-.117-.332c3.984-1.51 5.976-3.815 5.976-6.914 0-1.276-.514-2.67-1.543-4.18 1.315 1.198 1.973 2.722 1.973 4.57 0 2.996-1.908 5.268-5.723 6.817ZM77.031 1.25l-.215.371a55.894 55.894 0 0 0-3.047 6.133l-.175.45-.254-.138c-.3-1.979-.996-3.548-2.09-4.707-1.094-1.158-2.415-1.738-3.965-1.738-1.653 0-3.034.723-4.14 2.168-1.394 1.797-2.09 4.844-2.09 9.14 0 3.699.638 6.596 1.914 8.692 1.289 2.096 3.073 3.145 5.351 3.145 1.823 0 3.275-.606 4.356-1.817 1.093-1.224 1.745-2.969 1.953-5.234.052-.547.273-.82.664-.82.508 0 .762.423.762 1.27 0 1.262-.287 2.57-.86 3.925-1.21 2.864-3.71 4.297-7.5 4.297-3.385 0-6.074-1.185-8.066-3.555-1.992-2.383-2.988-5.599-2.988-9.648 0-3.737 1.035-6.869 3.105-9.395C61.816 1.263 64.388 0 67.461 0c1.458 0 3.118.358 4.98 1.074.977.378 1.784.567 2.422.567.69 0 1.309-.19 1.856-.567l.312.176Zm-5.664 3.379c-1.185-.95-2.305-1.426-3.36-1.426-3.372 0-5.058 3.216-5.058 9.649 0 2.93.39 5.37 1.172 7.324.781 1.94 1.882 3.196 3.3 3.77v.195c-1.536-.313-2.766-1.491-3.69-3.535-.912-2.058-1.368-4.656-1.368-7.794 0-6.731 1.85-10.097 5.547-10.097 1.25 0 2.403.553 3.457 1.66v.254Zm6.367 13.418c-.208 3.229-1.113 5.69-2.715 7.383-1.588 1.68-3.815 2.52-6.68 2.52-2.174 0-4.198-.671-6.073-2.012v-.157c1.666 1.094 3.678 1.64 6.035 1.64 2.578 0 4.68-.826 6.308-2.48a7.733 7.733 0 0 0 1.758-2.714c.378-1.003.632-2.331.762-3.985l.039-.449.566.254Zm.723-15.86-.215.372c-1.42 2.421-2.552 4.628-3.398 6.62l-.528-.253.215-.489A66.463 66.463 0 0 1 76.25 5.04l1.563-2.773.195-.352.449.274ZM97.871.645 95.84 2.949l3.203 8.516.781-.43-2.89-7.695 2.07-2.383.508.215-1.973 2.285 2.734 7.285c.157-.117.248-.189.274-.215l.644-.547c.391-.312.638-.533.743-.664.338 1.485.859 2.813 1.562 3.985a13.43 13.43 0 0 0-.82-.04c-1.237 0-2.142.196-2.715.587l3.535 9.59 2.93 2.265h-9.864l2.696-2.265-2.168-5.704c-1.432 1.446-2.533 2.82-3.3 4.121l-.45-.117c.768-1.276 1.914-2.701 3.437-4.277l.157-.195-.371-.86a17.367 17.367 0 0 0-3.848 4.492l-.352-.566c-.677-1.08-1.543-2.311-2.597-3.691l-.196-.235c-1.002 2.227-1.504 4.037-1.504 5.43 0 .82.137 1.517.41 2.09.287.56.964 1.504 2.032 2.832.091.117.234.3.43.547H80.39l-.39-.528h9.941l-.332-.41c-.859-1.041-1.425-1.849-1.699-2.422-.26-.586-.39-1.27-.39-2.05 0-1.329.54-3.308 1.62-5.938l-.859-.898a28.084 28.084 0 0 0-.644 1.836l-.645 1.992c-.351 1.067-.527 1.953-.527 2.656 0 .73.123 1.335.37 1.816.248.482.77 1.14 1.563 1.973.079.078.196.202.352.371h-9.766c1.862-.963 3.334-2.259 4.414-3.887 1.094-1.627 2.175-4.14 3.243-7.539l.078-.273c-.69-.586-1.686-.944-2.988-1.074a14.024 14.024 0 0 0 1.66-3.34c.182.17.293.273.332.312l.879.82c.299.287.657.58 1.074.88l.351-.86-.234-.195a43.954 43.954 0 0 0-1.64-1.387l-.176-.137.312-.43c.69.456 1.354.984 1.992 1.583l2.656-7.305-2.07-2.226h9.004Zm-4.824 6.27-2.149 5.663c.118.13.183.209.196.235l.8.898c.43.469.977 1.198 1.641 2.187l.196.293c.56-.703 1.223-1.4 1.992-2.09l-2.676-7.187Zm-.879-2.267-3.106 8.204a27.154 27.154 0 0 1 2.56 3.007l.897 1.25a4.9 4.9 0 0 1 .196.254c.117-.117.182-.189.195-.215l.274-.332a4.58 4.58 0 0 1 .214-.253 20.342 20.342 0 0 0-3.183-3.81l2.5-6.6-.547-1.505Zm11.484 5.606c.287 1.172 1.003 2.78 2.149 4.824a7.41 7.41 0 0 0-.489-.058l-1.582-.137a19.405 19.405 0 0 0-1.562-.098 9.36 9.36 0 0 0-.391.02l3.262 8.652 4.356 3.848h-11.31l-.37-.528h10.371l-3.516-3.105-3.476-9.2c.442-.117.95-.175 1.523-.175.703 0 1.485.058 2.344.176l-.234-.43c-.834-1.536-1.394-2.923-1.68-4.16l.605.37Zm6.993-9.61h7.695c3.763 0 6.549.723 8.359 2.168 2.696 2.136 4.043 5.482 4.043 10.04 0 4.726-1.178 8.144-3.535 10.253a9.3 9.3 0 0 1-3.594 2.012c-1.315.39-3.066.586-5.254.586h-8.3l2.675-2.05V2.89L110.645.645Zm5.917 1.641V24.2h1.075V3.574a12.278 12.278 0 0 1 1.855-.156c1.068 0 1.908.11 2.52.332.625.208 1.25.599 1.875 1.172a10.262 10.262 0 0 0-4.434-.977c-.338 0-.781.026-1.328.078V24.2c1.458 0 2.565-.117 3.32-.351.756-.248 1.472-.716 2.149-1.407 1.888-1.914 2.832-5.13 2.832-9.648 0-4.414-1.022-7.428-3.067-9.043-1.237-.977-3.196-1.465-5.879-1.465h-.918Zm-5.292 25.02-.293-.528h7.148c3.516 0 6.185-.488 8.008-1.465 3.919-2.083 5.879-6.113 5.879-12.09 0-3.997-.879-6.965-2.637-8.906l-.781-.859a7.275 7.275 0 0 1-.235-.273c2.761 1.731 4.141 5.045 4.141 9.941 0 5.143-1.367 8.932-4.102 11.367-2.096 1.875-5.52 2.813-10.273 2.813h-6.855ZM134.238.645h9.258L140.879 3.3v20.332l2.461 2.07h-9.102l2.715-2.246V3.086L134.238.645Zm10.137 1.113-1.992 1.972v19.903l3.281 3.672h-10.156l-.488-.528h9.492l-2.676-2.949V3.555l2.207-2.188.332.39ZM164.551.645l-2.031 2.304 3.203 8.516.781-.43-2.891-7.695 2.071-2.383.507.215-1.972 2.285 2.734 7.285a4.18 4.18 0 0 0 .274-.215l.644-.547c.391-.312.638-.533.742-.664.339 1.485.86 2.813 1.563 3.985-.378-.026-.651-.04-.821-.04-1.237 0-2.141.196-2.714.587l3.535 9.59 2.929 2.265h-9.863l2.696-2.265-2.168-5.704c-1.433 1.446-2.533 2.82-3.301 4.121l-.449-.117c.768-1.276 1.914-2.701 3.437-4.277l.156-.195-.371-.86a17.36 17.36 0 0 0-3.847 4.492l-.352-.566c-.677-1.08-1.543-2.311-2.598-3.691l-.195-.235c-1.003 2.227-1.504 4.037-1.504 5.43 0 .82.137 1.517.41 2.09.287.56.964 1.504 2.032 2.832.091.117.234.3.429.547H147.07l-.39-.528h9.941l-.332-.41c-.859-1.041-1.426-1.849-1.699-2.422-.261-.586-.391-1.27-.391-2.05 0-1.329.541-3.308 1.621-5.938l-.859-.898a28.888 28.888 0 0 0-.645 1.836l-.644 1.992c-.352 1.067-.527 1.953-.527 2.656 0 .73.123 1.335.371 1.816.247.482.768 1.14 1.562 1.973.078.078.195.202.352.371h-9.766c1.862-.963 3.333-2.259 4.414-3.887 1.094-1.627 2.175-4.14 3.242-7.539l.078-.273c-.69-.586-1.686-.944-2.988-1.074a14.005 14.005 0 0 0 1.66-3.34c.183.17.293.273.332.312l.879.82c.3.287.658.58 1.074.88l.352-.86-.234-.195a43.686 43.686 0 0 0-1.641-1.387l-.176-.137.313-.43c.69.456 1.354.984 1.992 1.583l2.656-7.305-2.07-2.226h9.004Zm-4.824 6.27-2.149 5.663c.117.13.182.209.195.235l.801.898c.43.469.977 1.198 1.641 2.187l.195.293c.56-.703 1.224-1.4 1.992-2.09l-2.675-7.187Zm-.879-2.267-3.106 8.204a27.096 27.096 0 0 1 2.559 3.007l.898 1.25c.013.013.078.098.196.254.117-.117.182-.189.195-.215l.273-.332a4.73 4.73 0 0 1 .215-.253 20.362 20.362 0 0 0-3.183-3.81l2.5-6.6-.547-1.505Zm11.484 5.606c.286 1.172 1.003 2.78 2.148 4.824a7.424 7.424 0 0 0-.488-.058l-1.582-.137a19.405 19.405 0 0 0-1.562-.098 8.92 8.92 0 0 0-.391.02l3.262 8.652 4.355 3.848h-11.308l-.371-.528h10.371l-3.516-3.105-3.477-9.2a5.98 5.98 0 0 1 1.524-.175c.703 0 1.484.058 2.344.176l-.235-.43c-.833-1.536-1.393-2.923-1.679-4.16l.605.37Z" fill="#EC9E32"/></svg>