<svg width="32" height="48" fill="none" xmlns="http://www.w3.org/2000/svg"><path d="m26.406 11.375-10.562 6.5-10.563-6.5V0h21.125v11.375Z" fill="#212529"/><path d="M22.344 0v13.877l-6.5 3.998-6.5-3.998V0h13Z" fill="#DD051D"/><path d="m15.844 17.875 5.273-3.25a17.356 17.356 0 0 0-10.563 0l5.29 3.25Z" fill="#A60416"/><path d="M15.844 47.125c8.75 0 15.844-7.093 15.844-15.844 0-8.75-7.094-15.843-15.844-15.843S0 22.53 0 31.28s7.093 15.844 15.844 15.844Z" fill="#FCCD1D"/><path d="M15.844 43.063c6.506 0 11.781-5.275 11.781-11.782 0-6.506-5.275-11.781-11.781-11.781-6.507 0-11.781 5.275-11.781 11.781 0 6.507 5.274 11.782 11.78 11.782Z" fill="#F9A215"/><path d="m16.957 25.188 1.235 2.136a1.253 1.253 0 0 0 .861.618l2.478.495a1.242 1.242 0 0 1 .69 2.08l-1.705 1.804a1.218 1.218 0 0 0-.325.992l.292 2.437a1.276 1.276 0 0 1-1.804 1.284l-2.283-1.032a1.3 1.3 0 0 0-1.072 0l-2.283 1.032a1.275 1.275 0 0 1-1.82-1.284l.292-2.438a1.218 1.218 0 0 0-.325-.99l-1.706-1.805a1.243 1.243 0 0 1 .674-2.08l2.438-.479a1.252 1.252 0 0 0 .861-.617l1.276-2.154a1.291 1.291 0 0 1 2.226 0Z" fill="#FCCD1D"/></svg>