<svg width="43" height="52" fill="none" xmlns="http://www.w3.org/2000/svg"><path d="M25.21 35.702a2.38 2.38 0 0 0-.965.872 2.345 2.345 0 0 0-.356 1.244v7.09c0 .627.252 1.228.7 1.672l4.778 4.727a2.402 2.402 0 0 0 1.689.692c.37 0 .735-.085 1.067-.248l9.556-4.727a2.38 2.38 0 0 0 .964-.872c.234-.374.357-.804.357-1.243V21.273A21.16 21.16 0 0 0 36.703 6.23 21.617 21.617 0 0 0 21.5 0 21.617 21.617 0 0 0 6.297 6.23 21.159 21.159 0 0 0 0 21.274V44.91c0 .439.123.87.357 1.243.233.374.567.676.964.872l9.556 4.727a2.412 2.412 0 0 0 2.756-.444l4.778-4.727c.448-.444.7-1.045.7-1.671v-7.091c0-.44-.123-.87-.357-1.244a2.38 2.38 0 0 0-.964-.872l-3.457-1.709V27.46l6.1 3.03a2.41 2.41 0 0 0 2.135 0l6.099-3.03v6.533l-3.457 1.71Zm7.1-14.077a2.407 2.407 0 0 0-2.322-.104l-8.488 4.2-8.488-4.2a2.411 2.411 0 0 0-2.324.104 2.375 2.375 0 0 0-.83.86 2.344 2.344 0 0 0-.302 1.151v11.818c0 .44.123.87.356 1.244.233.373.567.675.965.872l3.456 1.709v4.651l-2.866 2.836-6.69-3.318V21.273c0-4.389 1.763-8.597 4.899-11.7A16.813 16.813 0 0 1 21.5 4.727c4.435 0 8.688 1.743 11.824 4.846a16.457 16.457 0 0 1 4.898 11.7v22.175l-6.689 3.309-2.866-2.836v-4.642l3.456-1.71a2.38 2.38 0 0 0 .965-.871c.233-.374.357-.805.356-1.244V23.636c0-.403-.104-.8-.303-1.152a2.374 2.374 0 0 0-.831-.86Z" fill="#360600"/></svg>