<svg width="27" height="27" fill="none" xmlns="http://www.w3.org/2000/svg"><path d="M13.5 27C20.956 27 27 20.956 27 13.5S20.956 0 13.5 0 0 6.044 0 13.5 6.044 27 13.5 27Z" fill="url(#a)"/><path d="m20.07 7.768-2.41 12.155s-.337.844-1.265.438l-5.563-4.267-2.025-.975L5.4 13.975s-.522-.185-.575-.591c-.053-.406.59-.622.59-.622l13.543-5.31c0-.006 1.113-.496 1.113.316Z" fill="#fff"/><path d="M10.4 19.786s-.164-.016-.365-.654c-.2-.638-1.228-4.013-1.228-4.013l8.179-5.194s.474-.285.453 0c0 0 .085.052-.169.284-.253.238-6.422 5.785-6.422 5.785" fill="#D2E4F0"/><path d="m12.962 17.73-2.199 2.008s-.174.132-.358.048l.421-3.728" fill="#B5CFE4"/><defs><linearGradient id="a" x1="13.5" y1="0" x2="13.5" y2="26.901" gradientUnits="userSpaceOnUse"><stop stop-color="#41BCE7"/><stop offset="1" stop-color="#22A6DC"/></linearGradient></defs></svg>