<svg width="36" height="45" fill="none" xmlns="http://www.w3.org/2000/svg"><path d="M5.14 38.922v-4.84a10.34 10.34 0 0 1 4.92-8.768l3.32-2.027a1.468 1.468 0 0 0 0-2.511l-3.32-2.027A10.34 10.34 0 0 1 5.14 9.98V5.14h24.97v4.84a10.34 10.34 0 0 1-4.92 8.769l-3.32 2.027a1.468 1.468 0 0 0 0 2.511l3.32 2.027a10.34 10.34 0 0 1 4.92 8.768v4.84H5.14Z" fill="#fff"/><path d="m7.513 38.922 10.112-11.376 10.046 11.376H7.513Z" fill="#A4A4AC"/><path d="M34.516 5.14V.735H.734v4.407h33.782Zm0 38.188v-4.406H.734v4.406h33.782Z" fill="#360600"/><path d="m22.259 21.407 3.312-2.027a11.015 11.015 0 0 0 5.273-9.4V5.875h4.406V0H0v5.875h4.406V9.98a11.016 11.016 0 0 0 5.273 9.4l3.312 2.027a.735.735 0 0 1 0 1.248L9.68 24.683a11.016 11.016 0 0 0-5.273 9.4v4.105H0v5.876h35.25v-5.876h-4.406v-4.105a11.017 11.017 0 0 0-5.273-9.4l-3.312-2.026a.735.735 0 0 1 0-1.249Zm-20.79-17V1.468H33.78v2.937H1.47Zm32.312 35.25v2.937H1.47v-2.938h32.31Zm-24.638-1.47 8.482-9.546 8.416 9.547H9.143Zm12.345-14.276 3.32 2.027a9.598 9.598 0 0 1 4.567 8.144v4.105h-1.373l-10.377-11.75-10.443 11.75H5.875v-4.105a9.598 9.598 0 0 1 4.568-8.144l3.32-2.027a2.204 2.204 0 0 0 0-3.76l-3.32-2.027A9.598 9.598 0 0 1 5.875 9.98V5.875h23.5V9.98a9.597 9.597 0 0 1-4.568 8.144l-3.32 2.027a2.203 2.203 0 0 0 0 3.76Z" fill="#360600"/></svg>